#tb 0: 1/25
0,          0,          0,        1,   599040, 0xc3e98658
0,          1,          1,        1,   599040, 0x621fa0b7
0,          2,          2,        1,   599040, 0x53b2e637
0,          3,          3,        1,   599040, 0x1db118c2
0,          4,          4,        1,   599040, 0xa25003ba
0,          5,          5,        1,   599040, 0x51de524b
0,          6,          6,        1,   599040, 0x5f01f648
0,          7,          7,        1,   599040, 0x43d8c9cb
0,          8,          8,        1,   599040, 0xf7f6c7f6
0,          9,          9,        1,   599040, 0xb08885ec
0,         10,         10,        1,   599040, 0x1e6e91a7
0,         11,         11,        1,   599040, 0x18549abd
0,         12,         12,        1,   599040, 0xef523cbc
0,         13,         13,        1,   599040, 0x87985e99
0,         14,         14,        1,   599040, 0x37521482
0,         15,         15,        1,   599040, 0xe9fbc0ce
0,         16,         16,        1,   599040, 0x20bab233
0,         17,         17,        1,   599040, 0xbe3525e6
0,         18,         18,        1,   599040, 0xace46e50
0,         19,         19,        1,   599040, 0xf709b3a9
0,         20,         20,        1,   599040, 0xf2690bc8
0,         21,         21,        1,   599040, 0x7eacdec3
0,         22,         22,        1,   599040, 0xaed66c65
0,         23,         23,        1,   599040, 0x066b2fa6
0,         24,         24,        1,   599040, 0x5dc050bd
0,         25,         25,        1,   599040, 0x170e7de1
0,         26,         26,        1,   599040, 0x2ccd7b16
0,         27,         27,        1,   599040, 0x4f7bc972
0,         28,         28,        1,   599040, 0x72d7f274
0,         29,         29,        1,   599040, 0x44d2396e
0,         30,         30,        1,   599040, 0xe4dc9b54
0,         31,         31,        1,   599040, 0xfacba54d
0,         32,         32,        1,   599040, 0x7b86141e
0,         33,         33,        1,   599040, 0x65564792
0,         34,         34,        1,   599040, 0xf90c7f54
0,         35,         35,        1,   599040, 0x00ce2f3c
0,         36,         36,        1,   599040, 0xe6b185f2
0,         37,         37,        1,   599040, 0x513942f1
0,         38,         38,        1,   599040, 0x7c27b03a
0,         39,         39,        1,   599040, 0xa201fea3
0,         40,         40,        1,   599040, 0x5023fd92
0,         41,         41,        1,   599040, 0xe05ba218
0,         42,         42,        1,   599040, 0x84b61765
0,         43,         43,        1,   599040, 0xfa6c8f65
0,         44,         44,        1,   599040, 0xede8ef78
0,         45,         45,        1,   599040, 0xcd2763f2
0,         46,         46,        1,   599040, 0xb83e3bc6
0,         47,         47,        1,   599040, 0x99fb3a3e
0,         48,         48,        1,   599040, 0x3dd1e5ac
0,         49,         49,        1,   599040, 0x776d7464
0,         50,         50,        1,   599040, 0xaea89891
0,         51,         51,        1,   599040, 0xfc0f1ec9
0,         52,         52,        1,   599040, 0x2621f36f
0,         53,         53,        1,   599040, 0x41101bbc
0,         54,         54,        1,   599040, 0x7a5d4d0e
0,         55,         55,        1,   599040, 0xc04fb148
0,         56,         56,        1,   599040, 0x889d8186
0,         57,         57,        1,   599040, 0x26f091bf
0,         58,         58,        1,   599040, 0xe6644a2d
0,         59,         59,        1,   599040, 0xd48efb7f
0,         60,         60,        1,   599040, 0xe25204e3
0,         61,         61,        1,   599040, 0x928f2efd
0,         62,         62,        1,   599040, 0x535a4f2d
0,         63,         63,        1,   599040, 0x2672ad63
0,         64,         64,        1,   599040, 0x194f1463
